<svg width="24" height="24" viewBox="0 0 24 24" fill="none" xmlns="http://www.w3.org/2000/svg">
<path d="M11.9947 23.0769C18.0658 23.0769 23.0769 18.0634 23.0769 12C23.0769 5.93664 18.0551 0.923096 11.984 0.923096C5.92351 0.923096 0.923096 5.93664 0.923096 12C0.923096 18.0634 5.93421 23.0769 11.9947 23.0769ZM11.9947 15.7066C8.97515 15.7066 6.6302 16.7886 5.4952 18.0313C4.03898 16.4565 3.15026 14.3354 3.15026 12C3.15026 7.08289 7.07992 3.14062 11.984 3.14062C16.8987 3.14062 20.8498 7.08289 20.8605 12C20.8605 14.3354 19.9718 16.4565 18.5048 18.042C17.3698 16.7886 15.0249 15.7066 11.9947 15.7066ZM11.9947 13.9497C14.0719 13.9712 15.6888 12.1928 15.6888 9.90033C15.6888 7.73637 14.0612 5.92592 11.9947 5.92592C9.93882 5.92592 8.30057 7.73637 8.31128 9.90033C8.32199 12.1928 9.92812 13.939 11.9947 13.9497Z" fill="black"/>
</svg>
