<svg width="24" height="24" viewBox="0 0 24 24" fill="none" xmlns="http://www.w3.org/2000/svg">
<path d="M17 11.995C16.9904 11.5843 16.8567 11.2437 16.5415 10.9232L9.1872 3.38063C8.94842 3.1202 8.65234 3 8.2894 3C7.57307 3 7 3.59098 7 4.34224C7 4.71285 7.14327 5.05342 7.40115 5.32387L13.9341 11.985L7.40115 18.6661C7.14327 18.9366 7 19.2671 7 19.6477C7 20.399 7.57307 21 8.2894 21C8.64279 21 8.94842 20.8698 9.1872 20.6093L16.5415 13.0668C16.8567 12.7462 17 12.4057 17 11.995Z" fill="black"/>
</svg>
