<svg width="24" height="24" viewBox="0 0 24 24" fill="none" xmlns="http://www.w3.org/2000/svg">
<path d="M12.6875 8.47442V4.15387H19.5978C21.5708 4.15387 22.6154 5.19583 22.6154 7.17197V11.6991H16.0355C17.0711 11.1512 17.7586 10.217 17.7586 9.10319C17.7586 7.74684 16.7408 6.71386 15.3748 6.71386C14.2588 6.71386 13.2767 7.37856 12.6875 8.47442ZM1.38464 11.6991V7.17197C1.38464 5.19583 2.43815 4.15387 4.41123 4.15387H11.3215V8.47442C10.7323 7.37856 9.7591 6.71386 8.6431 6.71386C7.26819 6.71386 6.25933 7.74684 6.25933 9.10319C6.25933 10.217 6.94678 11.1512 7.9735 11.6991H1.38464ZM10.9197 11.5913C9.23235 11.5913 7.79494 10.3967 7.79494 9.3008C7.79494 8.67203 8.18778 8.27681 8.80381 8.27681C10.0627 8.27681 11.1608 9.72298 11.1608 11.3488V11.5913H10.9197ZM13.0982 11.5913H12.8571V11.3488C12.8571 9.72298 13.9553 8.27681 15.2141 8.27681C15.8301 8.27681 16.223 8.67203 16.223 9.3008C16.223 10.3967 14.7856 11.5913 13.0982 11.5913ZM22.6154 16.8281C22.6154 18.7952 21.5708 19.8462 19.5978 19.8462H12.6875V13.8279H12.75C13.3749 15.6783 15.3837 17.2143 16.7944 17.4389C17.455 17.5377 17.8389 17.0526 17.8389 16.5586C17.8389 16.0466 17.5175 15.7053 16.9551 15.6065C15.7587 15.4268 14.1785 13.9896 13.6606 12.9656H22.6154V16.8281ZM4.41123 19.8462C2.43815 19.8462 1.38464 18.8042 1.38464 16.8281V12.9656H10.3573C9.83053 13.9896 8.2592 15.4178 7.06285 15.6065C6.49146 15.7143 6.17898 16.0466 6.17898 16.5586C6.17898 17.0526 6.56288 17.5377 7.22355 17.4389C8.62525 17.2143 10.634 15.6783 11.259 13.8279H11.3215V19.8462H4.41123Z" fill="black"/>
</svg>
