<svg width="24" height="24" viewBox="0 0 24 24" fill="none" xmlns="http://www.w3.org/2000/svg">
<path d="M7 12.005C7.00955 12.4157 7.14327 12.7563 7.45845 13.0768L14.8128 20.6194C15.0516 20.8798 15.3477 21 15.7106 21C16.4269 21 17 20.409 17 19.6578C17 19.2871 16.8567 18.9466 16.5989 18.6761L10.0659 12.015L16.5989 5.33389C16.8567 5.06344 17 4.73289 17 4.35225C17 3.601 16.4269 3 15.7106 3C15.3572 3 15.0516 3.13022 14.8128 3.39065L7.45845 10.9332C7.14327 11.2538 7 11.5943 7 12.005Z" fill="black"/>
</svg>
