<svg width="40" height="32" viewBox="0 0 40 32" fill="none" xmlns="http://www.w3.org/2000/svg">
<path fill-rule="evenodd" clip-rule="evenodd" d="M11.2556 0H10.2225V0.65765H9.55815V1.70113H10.6876V0.840295H11.2556V0ZM2.1165 0.237902H3.08799V1.20657H2.1165V0.237902ZM0 0.883446H0.540247V1.65129H0V0.883446ZM2.60209 1.65242H1.20566V3.22354H2.60209V1.65242ZM3.94662 0.65765H4.99315V1.70113H3.94662V0.65765ZM6.64692 0.413433H6.00321V1.05527H6.64692V0.413433ZM3.56101 2.79534H4.9922V4.22235H3.56101V2.79534ZM4.03095 5.13594H2.60134V6.56137H4.03095V5.13594ZM4.92582 4.74987H6.32462V5.70358H7.84076V7.68501H5.94989V6.14459H4.92582V4.74987ZM6.70263 2.56034H5.66194V3.99207H6.89557V4.89155H8.03372V3.55668H7.25504V2.82861H8.51531V1.39293H6.70263V2.56034ZM6.10772 8.23497H5.36369V9.04692H6.10772V8.23497ZM6.79923 8.0076H8.51555V9.7189H6.79923V8.0076ZM9.52331 5.13594H8.51613V6.56137H9.94573V5.58831H10.8194V3.79037H9.71547V3.04851H8.77004V3.99118H9.52331V5.13594ZM10.8176 2.31638H11.7818V0.911079H13.6727V2.79643H12.015V3.51028H10.8176V2.31638ZM14.2411 0.237902H15.3359V1.39872H14.2411V0.237902ZM10.1269 10.2887H8.73045V11.6811H10.1269V10.2887ZM11.7818 4.42802H13.6292V6.27006H11.7818V4.42802ZM14.1445 2.31638H14.1457V2.31594H15.5863V1.39925H20.9572V8.55792L13.9624 6.29691V6.14004V5.13609V5.13594H15.6124V3.79177H14.1457V3.79143H14.1445V2.31638ZM21.2193 1.39925V8.63667L26.512 12.5381L30.5433 13.3115L21.2193 1.39925ZM26.1709 12.8133L21.1412 9.04657L22.9136 15.3799H27.4844L26.1709 12.8133ZM12.3113 14.6059L22.809 15.4052L21.0358 9.09237L12.3113 14.6059ZM27.2998 15.537L23.2669 15.5362L24.056 18.1942L27.2998 15.537ZM27.6378 15.6231L24.0701 18.5866L28.3652 20.8121L28.4395 18.1377L27.6378 15.6231ZM20.9177 21.4296L22.9791 15.6412L23.8203 18.5614L21.6261 21.9533L20.9177 21.4296ZM23.9898 18.719L21.8359 22.0061L28.2067 20.9059L23.9898 18.719ZM23.1107 29.1659V22.5396L24.857 27.6475L23.1107 29.1659ZM22.6904 22.2406V29.6923L21.1928 31.25L19.565 29.3253L21.7315 22.3981L22.6904 22.2406ZM21.5876 22.2149L20.7472 21.5998L17.7135 26.5888L19.4211 29.2224L21.5876 22.2149ZM28.783 17.9575L28.6961 20.5248L33.1429 16.3871V14.4223L28.783 17.9575ZM27.9555 15.5498L28.6253 17.6313L32.8619 14.274L30.9237 13.7141L27.9555 15.5498ZM33.4464 14.2534V16.2309L37.8726 14.5337L36.1263 13.6517L33.4464 14.2534ZM36.4275 13.4904L37.0744 11.7917L38.4566 13.8589L38.0151 14.3015L36.4275 13.4904ZM37.8718 12.5225L38.5471 13.5384L38.9547 13.3415L37.8718 12.5225ZM39.0762 13.1168L37.194 11.7402L37.8717 11.1511L39.5659 12.6962V13.1168H39.0762ZM39.093 13.4412H39.8149L39.9997 15.4573L39.7976 15.4825L39.093 13.4412ZM38.9191 13.8714L38.4949 14.2046L39.4783 15.3426L38.9191 13.8714ZM30.8064 13.3899L31.5156 11.7393L29.5837 11.7385L30.8064 13.3899ZM31.5285 11.4787H29.4141L28.6259 10.6014L31.5285 9.97292V11.4787ZM31.8823 9.97292V11.5574L36.833 11.5795L37.4901 11.0471L31.8823 9.97292ZM31.0161 13.5853L31.8043 11.7385H36.7692L36.1263 13.4144L33.1313 14.109L31.0161 13.5853ZM26.6136 12.8875L27.9003 15.3501L30.6244 13.6782L26.6136 12.8875ZM13.9271 6.55966L20.9566 8.86241L11.8767 14.5626L10.6485 13.1308H9.89815V12.1795H12.2598V10.9856H12.7108V10.0705H11.7866V10.795H11.0758V9.78224H10.1699V8.86555H9.18019V7.43382H10.3886V6.55966H11.4707V7.72757H10.6161V8.44344H11.7282V9.0459H13.5843V8.44344H12.7266V7.02037H13.9358L13.9271 6.55966ZM17.7594 8.14654H16.2176L16.2153 9.42785H17.7594V8.14654ZM14.3765 11.2455H15.3962V9.77909H13.9255V10.9856H13.315V11.9228H14.3765V11.2455ZM16.512 2.37737H17.5033V3.3224H16.512V2.37737ZM19.5687 4.90771H18.8104V5.85275H17.3169V4.42888H18.3745V3.71302H19.5726L19.5687 4.90771ZM40 15.5665L39.8294 15.5885L39.9526 15.9618L40 15.5665Z" fill="#00BBD7"/>
</svg>
